PathFileType	4	(X/Y/Z)	./resultDataOpenSim/trcMotMarkerGrf/sub10/qtm-02-06.trc
DataRate	CameraRate	NumFrames	NumMarkers	Units	OrigDataRate	OrigDataStartFrame	OrigNumFrames
250.000000	250.000000	10	24	m	250.000000	69	546
Frame#	Time	L.Toe.Tip			R.Toe.Tip			L.Ankle.Lat			R.Ankle.Lat			L.Ankle.Med			R.Ankle.Med			L.Heel			R.Heel			L.Knee.Lat			R.Knee.Lat			L.Knee.Med			R.Knee.Med			L.Thigh.Upper			R.Thigh.Upper			L.ASIS			R.ASIS			V.Sacral			L.Acromium			R.Acromium			C7			L.Elbow			R.Elbow			L.Wrist.Lat			R.Wrist.Lat
		X1	Y1	Z1	X2	Y2	Z2	X3	Y3	Z3	X4	Y4	Z4	X5	Y5	Z5	X6	Y6	Z6	X7	Y7	Z7	X8	Y8	Z8	X9	Y9	Z9	X10	Y10	Z10	X11	Y11	Z11	X12	Y12	Z12	X13	Y13	Z13	X14	Y14	Z14	X15	Y15	Z15	X16	Y16	Z16	X17	Y17	Z17	X18	Y18	Z18	X19	Y19	Z19	X20	Y20	Z20	X21	Y21	Z21	X22	Y22	Z22	X23	Y23	Z23	X24	Y24	Z24

69	0.272	-1.4300263	0.039219062	-0.17296969	-0.73278526	0.041877926	0.023933737	-1.4703054	0.16205202	-0.22168685	-0.8719695	0.05298904	0.057147609	-1.4477273	0.16536325	-0.14153739	-0.8558329	0.081292104	-0.02535658	-1.5328477	0.19584276	-0.17951147	-0.92276339	0.028240909	0.0076372934	-1.1712972	0.41466652	-0.21746631	-0.88857843	0.45197814	0.086080738	-1.1677804	0.38117942	-0.10051284	-0.88815033	0.46181777	-0.040938776	-1.067581	0.78378034	-0.24652871	-1.0244896	0.85219565	0.13493331	-0.99669943	0.89444959	-0.18744884	-0.97268723	0.93518024	0.050283203	-1.184697	0.92302992	-0.05092548	-1.0310812	1.3826214	-0.20920261	-1.0844892	1.3653424	0.11068245	-1.1379995	1.4082332	-0.063272471	-1.0777881	1.0339474	-0.27554092	-1.2370415	1.0589437	0.12191098	-0.85691767	0.92387637	-0.22632016	-1.2312633	0.83213062	0.20226355
70	0.276	-1.4278309	0.04025662	-0.17270939	-0.73240717	0.041510126	0.023537389	-1.4632007	0.16480393	-0.22122881	-0.87150602	0.052884469	0.056915182	-1.4403706	0.16698124	-0.14108962	-0.85558815	0.081049983	-0.025617465	-1.5246062	0.20048408	-0.17848879	-0.92265149	0.028304444	0.0076337278	-1.1615267	0.41363058	-0.21709241	-0.88528224	0.45202214	0.086673283	-1.1575262	0.37870008	-0.10034552	-0.88498829	0.46149171	-0.040649179	-1.0612212	0.78297771	-0.24505142	-1.018675	0.85311136	0.13596467	-0.99102925	0.89431714	-0.18607501	-0.96723503	0.936199	0.051065209	-1.1787347	0.92321431	-0.050432961	-1.0259196	1.3829746	-0.20801239	-1.0794951	1.365653	0.11163946	-1.1330471	1.4082491	-0.062335759	-1.0736073	1.0346233	-0.2745664	-1.2311763	1.0590463	0.12311744	-0.85293055	0.92377508	-0.22550904	-1.2254515	0.83231093	0.20364017
71	0.28	-1.4253414	0.041627526	-0.17241561	-0.73211793	0.04120685	0.023197224	-1.4560973	0.16762557	-0.22073984	-0.87107524	0.052775117	0.056709844	-1.4329218	0.1687795	-0.14060203	-0.85541813	0.08084688	-0.025836179	-1.5161287	0.20525192	-0.17764992	-0.92257374	0.02835692	0.0076491173	-1.151757	0.41257064	-0.21670654	-0.88203928	0.45213906	0.0872873	-1.1473059	0.37613422	-0.10019966	-0.88197904	0.46106458	-0.040337786	-1.0549374	0.7821354	-0.24354174	-1.0129514	0.85394912	0.13702516	-0.98550111	0.89412894	-0.18479976	-0.96187117	0.93714475	0.051841305	-1.173075	0.92330547	-0.050284455	-1.0207703	1.3832731	-0.20685458	-1.074551	1.365971	0.11257954	-1.1281368	1.4082494	-0.061417974	-1.0694594	1.035246	-0.27361154	-1.225322	1.0591223	0.12430265	-0.84895339	0.92360584	-0.22472004	-1.2195153	0.83246527	0.20505774
72	0.284	-1.4226007	0.043223801	-0.17212683	-0.73188849	0.04094263	0.023005058	-1.4488827	0.17050307	-0.22021373	-0.87076052	0.052697877	0.056578517	-1.4254689	0.17074328	-0.14004698	-0.85525449	0.080675889	-0.026004048	-1.5072608	0.2101418	-0.176951	-0.92251596	0.028399136	0.0076694295	-1.1420387	0.41148951	-0.21630458	-0.87883762	0.45226967	0.087874211	-1.1371042	0.37355278	-0.10006709	-0.87897319	0.46058881	-0.039995176	-1.0487338	0.78125239	-0.24201978	-1.0073244	0.85472186	0.13810563	-0.98008728	0.89389965	-0.18360952	-0.95657606	0.93800012	0.052626524	-1.1676237	0.92347423	-0.050214277	-1.0156845	1.3835226	-0.205751	-1.0696079	1.3662887	0.11350041	-1.1232691	1.4082476	-0.060514899	-1.0653632	1.0357951	-0.27267262	-1.2194815	1.05917	0.12547428	-0.84500319	0.92337046	-0.22395955	-1.2134854	0.83258532	0.20649978
73	0.288	-1.4196937	0.044948222	-0.17184502	-0.73169896	0.040708404	0.02295472	-1.4414694	0.17343419	-0.21962297	-0.87055268	0.052643367	0.056516224	-1.4179183	0.17286106	-0.1394132	-0.85506482	0.080530918	-0.026120823	-1.4977819	0.21512181	-0.17630802	-0.92247109	0.028426214	0.0076891101	-1.1323715	0.41040441	-0.2158831	-0.87570654	0.45240436	0.088438272	-1.1268873	0.37103278	-0.099930722	-0.87590766	0.46012969	-0.039632293	-1.0426064	0.78034059	-0.24050876	-1.0017945	0.85544634	0.13919497	-0.9747529	0.89364169	-0.18249228	-0.95128087	0.93874261	0.05339049	-1.162246	0.92383465	-0.049839657	-1.0106846	1.3837377	-0.20471594	-1.0646184	1.3665956	0.11440837	-1.1184384	1.4082511	-0.059627398	-1.061309	1.0362583	-0.27172955	-1.2136907	1.0592014	0.12666595	-0.84111132	0.92306975	-0.22324512	-1.2073737	0.83267415	0.20795785
74	0.292	-1.4167374	0.046716275	-0.17152188	-0.73153483	0.040503517	0.02296304	-1.4338138	0.17643043	-0.21894293	-0.87040821	0.052591412	0.056492992	-1.4101451	0.17511683	-0.13871258	-0.85485865	0.080409986	-0.026197758	-1.4875844	0.22012424	-0.17562135	-0.92243713	0.028435158	0.0077097228	-1.1227212	0.40934439	-0.21545191	-0.8725635	0.4525007	0.088970983	-1.1166456	0.36863501	-0.099760958	-0.87289287	0.45971734	-0.039256511	-1.0365532	0.77942144	-0.23902076	-0.9963599	0.85613791	0.14028385	-0.96947793	0.8933641	-0.18145024	-0.94591456	0.93935368	0.054086372	-1.1569605	0.92440418	-0.049042373	-1.0057554	1.3839307	-0.20375426	-1.059575	1.3668793	0.11530649	-1.1136332	1.4082645	-0.058759004	-1.0572367	1.0366565	-0.2707689	-1.2080449	1.059262	0.12795192	-0.83731404	0.92270493	-0.22259905	-1.2011559	0.8327323	0.2094315
75	0.296	-1.4138457	0.048451655	-0.17108738	-0.73138407	0.040329367	0.022939153	-1.4258823	0.17950294	-0.21818291	-0.87029814	0.052537312	0.056482016	-1.4021022	0.17746899	-0.13794706	-0.85466607	0.080313887	-0.026251772	-1.4768962	0.22503777	-0.17479954	-0.92241293	0.028430105	0.0077331601	-1.1130705	0.40833377	-0.21501788	-0.86938877	0.45251091	0.089456137	-1.1063673	0.3664199	-0.099527531	-0.87010368	0.45934632	-0.038856347	-1.0305733	0.77851614	-0.23756671	-0.99101335	0.85680787	0.14136371	-0.96426084	0.89308027	-0.18049263	-0.94049786	0.93985095	0.054731959	-1.151873	0.92512772	-0.047977178	-1.000864	1.3841078	-0.20286658	-1.0544931	1.3671294	0.1161873	-1.1088414	1.4082979	-0.057911063	-1.0530883	1.0370294	-0.26981081	-1.2026943	1.0594364	0.12945416	-0.83361727	0.92227847	-0.22202914	-1.1947988	0.83275328	0.21091594
76	0.3	-1.4109922	0.050133692	-0.17053135	-0.73123896	0.040183529	0.022846055	-1.4176576	0.18262774	-0.21736291	-0.87020944	0.052487275	0.056472181	-1.3937968	0.17985063	-0.13711034	-0.85450912	0.080242495	-0.026293658	-1.4661336	0.2297384	-0.17379798	-0.92239636	0.028419704	0.0077592477	-1.103423	0.40738362	-0.21456556	-0.86633304	0.45243939	0.089909535	-1.0960115	0.36446736	-0.099229288	-0.86759588	0.45901802	-0.038419274	-1.0246583	0.77765182	-0.23615617	-0.98572347	0.85746118	0.14242605	-0.95911194	0.89281322	-0.17962171	-0.93516501	0.94028959	0.055417393	-1.146933	0.9258264	-0.046845716	-0.99597478	1.3842715	-0.20205192	-1.0493899	1.3673498	0.1170504	-1.1040564	1.4083702	-0.057084437	-1.0488703	1.0373937	-0.26889354	-1.1977055	1.059773	0.13124572	-0.82993372	0.92178562	-0.22149603	-1.1882958	0.83273884	0.21240177
77	0.304	-1.4078834	0.051848253	-0.16997998	-0.73109975	0.040059418	0.022711519	-1.409183	0.18573167	-0.21648786	-0.87013998	0.052445591	0.05646559	-1.3853304	0.18218416	-0.13619706	-0.85438651	0.080194039	-0.026323335	-1.455515	0.23414788	-0.17265175	-0.92238581	0.028410482	0.0077863648	-1.0937671	0.40650137	-0.21407456	-0.86352351	0.45232316	0.09035599	-1.0854588	0.36288282	-0.098901894	-0.86525294	0.45875972	-0.03796151	-1.0187979	0.77686417	-0.23479216	-0.98043177	0.85809966	0.14347068	-0.95403629	0.89258701	-0.17882907	-0.93003619	0.94071517	0.056208742	-1.1419264	0.92627406	-0.045740471	-0.99106567	1.3844252	-0.20130117	-1.0442736	1.3675665	0.1179063	-1.0992743	1.408504	-0.056282547	-1.0446229	1.0377374	-0.26802874	-1.1928584	1.0601706	0.13318769	-0.82612868	0.92121561	-0.220936	-1.1816662	0.83270352	0.21388005
78	0.308	-1.4041142	0.053726045	-0.16961555	-0.73097562	0.039951519	0.022589564	-1.4005301	0.18873514	-0.21555143	-0.87009484	0.052412589	0.056466931	-1.3767974	0.18441496	-0.13520138	-0.85428053	0.080166302	-0.026336284	-1.4449979	0.23823975	-0.17141869	-0.92238178	0.028403529	0.0078123464	-1.0840548	0.40570171	-0.21354376	-0.86091949	0.45221091	0.09079756	-1.0745643	0.36176138	-0.098585783	-0.8628602	0.45860924	-0.037519753	-1.0129952	0.77618005	-0.23347774	-0.97510418	0.85872759	0.14450502	-0.94902128	0.89242025	-0.17810492	-0.92506653	0.94111976	0.057063553	-1.1367236	0.92640558	-0.044615473	-0.98613868	1.3845776	-0.20059994	-1.0391503	1.3678149	0.11875806	-1.094484	1.4087169	-0.05550396	-1.0403613	1.0380506	-0.26719364	-1.1877661	1.0604381	0.13500453	-0.82219382	0.92056819	-0.22034326	-1.1749343	0.83266411	0.21533529
